<?xml version="1.0" standalone="no"?><!DOCTYPE svg PUBLIC "-//W3C//DTD SVG 1.1//EN" "http://www.w3.org/Graphics/SVG/1.1/DTD/svg11.dtd"><svg t="1741263145610" class="icon" viewBox="0 0 1024 1024" version="1.1" xmlns="http://www.w3.org/2000/svg" p-id="3499" xmlns:xlink="http://www.w3.org/1999/xlink" width="200" height="200"><path d="M886.442667 493.674667v359.082666a56.448 56.448 0 0 1-56.384 56.384 56.448 56.448 0 0 1-56.362667-56.384v-194.346666a86.464 86.464 0 0 0-86.4-86.378667v30.016a56.426667 56.426667 0 0 1 56.384 56.362667v194.346666a86.464 86.464 0 0 0 86.4 86.378667 86.464 86.464 0 0 0 86.357333-86.378667V493.674667h-29.994666z" fill="#00D43D" p-id="3500"></path><path d="M627.285333 484.138667h61.397334V717.653333h-61.397334V484.138667z" fill="#FF7920" p-id="3501"></path><path d="M627.285333 289.792H136.576l-2.005333 2.005333v408.981334l2.005333 2.005333h109.162667v227.370667l2.005333 4.117333h381.546667V291.797333l-2.005334-2.005333z" fill="#FF8C40" p-id="3502"></path><path d="M134.570667 700.8h113.173333v233.472H134.570667V700.8z" fill="#FFCEB7" p-id="3503"></path><path d="M134.570667 0h494.72v291.797333H134.570667V0z" fill="#00CA0F" p-id="3504"></path><path d="M75.733333 932.053333h612.394667V1024H75.733333v-91.946667z" fill="#FF7920" p-id="3505"></path><path d="M486.336 559.381333h-68.330667v-129.813333H320.426667v199.36h64v131.968l101.888-201.514667z" fill="#FFFFFF" p-id="3506"></path><path d="M854.592 345.770667v149.909333h93.696v-147.904l-7.253333-2.005333H854.613333z" fill="#C3F839" p-id="3507"></path><path d="M867.84 215.189333h-84.565333l-2.005334 2.005334v128.576l2.005334 2.005333h165.013333v-52.16a80.426667 80.426667 0 0 0-80.426667-80.426667z" fill="#ABE700" p-id="3508"></path><path d="M710.186667 215.189333h73.088v132.586667H710.186667v-132.586667zM557.162667 72.106667v147.562666H206.677333V72.106667h350.506667z" fill="#00AE0C" p-id="3509"></path><path d="M557.162667 72.106667v147.584h-103.253334V72.106667h103.253334zM250.666667 149.077333h30.933333v30.912h-30.933333V149.077333z" fill="#ABE700" p-id="3510"></path><path d="M303.488 149.077333h30.912v30.912h-30.933333V149.077333z" fill="#FFFFFF" p-id="3511"></path></svg>